<?xml version="1.0" standalone="no"?>
<!DOCTYPE svg PUBLIC "-//W3C//DTD SVG 20010904//EN"
 "http://www.w3.org/TR/2001/REC-SVG-20010904/DTD/svg10.dtd">
<svg version="1.0" xmlns="http://www.w3.org/2000/svg"
 width="512.000000pt" height="512.000000pt" viewBox="0 0 512.000000 512.000000"
 preserveAspectRatio="xMidYMid meet">
<metadata>
Created by potrace 1.16, written by Peter Selinger 2001-2019
</metadata>
<g transform="translate(0.000000,512.000000) scale(0.100000,-0.100000)"
fill="#000000" stroke="none">
<path d="M4276 4699 c-101 -29 -282 -120 -416 -210 -198 -132 -452 -353 -536
-464 l-55 -73 17 -68 c8 -38 18 -76 20 -84 3 -8 25 23 52 72 66 123 119 196
127 176 3 -8 -4 -31 -18 -51 -24 -36 -47 -95 -85 -221 l-21 -69 32 29 c18 16
49 44 70 63 30 28 37 31 37 17 0 -28 -30 -137 -47 -169 -14 -28 -14 -29 9 -22
50 14 125 57 163 93 23 20 34 32 25 26 -22 -16 -130 -73 -130 -69 0 2 9 19 19
37 10 18 29 65 42 105 20 64 21 75 9 100 -7 15 -13 32 -11 36 1 5 -3 6 -9 2
-6 -3 -10 3 -10 15 0 11 -8 24 -17 27 -44 17 -41 26 48 133 117 141 267 285
363 350 109 72 269 147 357 166 70 15 76 15 114 -2 l40 -18 -75 -6 c-85 -8
-83 -8 -202 -63 -109 -50 -117 -67 -10 -21 76 33 192 68 199 60 3 -2 -15 -10
-39 -18 l-43 -15 58 -7 c32 -3 73 -14 90 -23 l32 -17 -99 -14 c-54 -7 -131
-23 -172 -36 -41 -13 -71 -20 -68 -15 10 17 -31 9 -61 -12 -16 -11 -41 -25
-54 -30 -13 -5 -21 -12 -18 -15 2 -3 67 11 143 32 162 43 232 48 263 20 44
-40 22 -57 -129 -100 -117 -33 -258 -90 -390 -156 -107 -54 -136 -75 -45 -34
31 14 74 27 98 29 24 2 102 30 187 68 201 90 248 106 259 88 5 -7 14 -11 19
-7 17 10 5 -34 -14 -55 -9 -10 -21 -16 -26 -13 -4 3 -7 1 -6 -4 3 -8 -185
-175 -267 -237 -22 -16 -83 -54 -135 -82 -109 -61 -113 -70 -7 -17 65 33 206
123 297 191 19 14 -13 -22 -71 -79 -89 -88 -121 -113 -195 -150 -203 -101
-342 -183 -332 -194 6 -5 132 43 189 71 28 15 71 41 97 59 26 19 90 55 142 80
l95 47 -40 -36 -40 -36 39 15 c21 9 43 16 48 16 13 0 -46 -49 -127 -105 -93
-64 -100 -72 -39 -41 46 22 153 66 163 66 9 0 -28 -36 -72 -72 -55 -43 -55
-44 -1 -22 37 15 35 13 -30 -47 -38 -35 -80 -72 -93 -82 -13 -11 -22 -21 -20
-23 2 -2 40 12 86 31 45 19 80 31 76 26 -20 -33 -310 -192 -347 -191 -7 0 -22
13 -32 27 l-20 27 41 35 c23 20 91 63 152 95 61 33 109 61 107 63 -2 3 -19 -3
-36 -12 -31 -16 -248 -105 -256 -105 -2 0 49 52 114 116 64 64 104 108 87 98
-127 -78 -183 -103 -306 -138 -74 -21 -141 -40 -149 -43 -9 -3 10 -14 45 -26
l60 -21 -35 -6 -35 -6 42 -7 c23 -4 55 -18 70 -32 l28 -26 -40 6 -40 7 50 -25
c28 -13 56 -31 64 -41 13 -15 11 -16 -30 -11 l-44 5 40 -13 c43 -14 138 -67
132 -73 -1 -2 -25 3 -52 11 -67 21 -81 17 -20 -4 139 -50 232 -114 400 -276
76 -74 98 -100 72 -85 -56 33 -53 20 6 -28 29 -22 81 -71 117 -108 l65 -66
-120 79 c-134 90 -234 148 -240 141 -7 -6 108 -90 270 -198 77 -51 158 -106
179 -123 l39 -31 -38 59 c-42 67 -128 176 -173 218 l-29 28 48 82 c79 131 109
234 109 370 0 41 7 71 24 105 80 158 168 569 170 792 2 344 -97 458 -338 389z
m299 -604 c-39 -231 -113 -473 -185 -598 -67 -118 -84 -184 -24 -99 l26 37 -7
-65 c-16 -162 -59 -246 -148 -291 l-40 -21 -41 41 c-40 40 -42 44 -41 99 0 31
4 63 8 69 4 7 3 21 -2 31 -6 11 -7 23 -3 27 4 5 -1 5 -10 2 -10 -3 -20 -2 -23
3 -4 6 -18 10 -33 10 -76 1 -75 11 4 51 90 45 125 51 77 13 -67 -52 -23 -51
57 2 45 30 53 48 14 33 -15 -5 -29 -8 -31 -5 -2 2 11 9 30 15 19 7 52 27 73
46 l39 35 -52 -20 c-29 -11 -70 -31 -90 -44 -21 -13 -57 -27 -81 -30 -24 -4
-73 -20 -109 -36 -36 -16 -61 -24 -56 -17 57 76 84 104 136 144 l62 46 -65
-60 c-66 -62 -76 -87 -22 -59 17 9 69 27 116 40 100 30 186 65 186 77 0 20 4
26 46 71 64 68 54 71 -16 4 -50 -48 -145 -106 -155 -94 -1 1 31 50 72 108 121
170 184 285 209 386 6 23 4 26 -10 21 -16 -6 -16 -5 0 23 10 16 22 28 28 27 5
-1 22 41 37 93 15 52 29 97 30 100 12 22 7 -136 -6 -215z m-174 118 c-5 -10
-26 -36 -46 -58 -32 -36 -31 -34 7 17 44 59 56 72 39 41z m-11 -157 c0 -2 -8
-10 -17 -17 -16 -13 -17 -12 -4 4 13 16 21 21 21 13z m-840 -100 c0 -2 -8 -10
-17 -17 -16 -13 -17 -12 -4 4 13 16 21 21 21 13z m377 -623 c-4 -3 1 -16 10
-27 18 -21 18 -21 -4 -2 -25 21 -30 36 -11 36 6 0 8 -3 5 -7z m109 -115 l29
-33 -32 29 c-31 28 -38 36 -30 36 2 0 16 -15 33 -32z m199 -168 c-3 -5 -10
-10 -16 -10 -5 0 -9 5 -9 10 0 6 7 10 16 10 8 0 12 -4 9 -10z"/>
<path d="M670 4678 c-83 -56 -115 -172 -114 -403 1 -269 58 -563 155 -810 23
-56 34 -105 38 -165 8 -96 37 -172 90 -233 l33 -37 -95 -102 c-53 -57 -94
-104 -93 -106 2 -1 15 2 30 8 33 12 106 13 106 1 0 -5 -7 -14 -15 -21 -8 -6
-26 -33 -41 -58 -15 -26 -43 -67 -63 -92 -20 -24 -29 -40 -21 -35 52 30 107
74 195 155 115 105 254 201 375 260 47 23 74 38 60 35 -47 -12 -155 -66 -262
-131 -58 -35 -109 -64 -113 -64 -4 0 -5 7 -1 15 3 8 4 15 3 15 -1 -1 -37 -9
-80 -19 -78 -19 -78 -19 -60 1 50 55 288 214 503 336 128 72 75 56 -77 -25
-68 -35 -123 -62 -123 -59 0 11 147 115 200 142 30 15 93 42 140 60 94 36 97
46 5 14 -32 -11 -63 -20 -69 -20 -21 0 59 43 124 67 l65 23 -55 -5 c-39 -4
-50 -2 -39 5 27 16 140 40 199 41 l55 1 -60 18 c-33 10 -78 21 -99 25 -55 9
-30 22 59 31 l70 7 -80 38 c-77 37 -79 38 -42 39 21 0 54 -7 74 -15 19 -8 39
-15 43 -15 4 0 11 21 15 47 7 48 25 71 95 125 l34 27 -11 68 c-7 37 -11 68
-10 70 2 1 30 -16 62 -38 33 -22 72 -47 87 -55 l28 -14 -37 67 c-93 174 -212
282 -567 518 -288 191 -466 274 -601 282 -72 4 -84 3 -115 -19z m199 -53 c203
-52 450 -211 646 -416 133 -138 226 -288 242 -385 l6 -39 -50 55 c-27 30 -62
69 -77 85 l-27 30 4 -26 c2 -15 -2 -37 -8 -49 -12 -22 -12 -22 -39 12 -30 41
-97 89 -246 178 -58 35 -118 73 -135 84 -16 12 -51 32 -77 46 -26 13 -46 26
-44 28 2 2 44 -12 92 -31 145 -56 222 -57 113 -2 -82 42 -295 123 -418 160
-63 19 -119 39 -125 45 -20 20 38 60 87 60 50 0 188 -30 277 -59 50 -17 66
-18 73 -9 6 9 7 8 4 -3 -4 -11 3 -20 18 -27 20 -9 23 -9 18 5 -5 13 -3 14 18
4 23 -11 23 -11 5 3 -11 9 -24 16 -28 16 -5 0 -19 9 -31 21 -27 25 -127 80
-127 69 0 -4 7 -13 15 -20 27 -22 5 -30 -38 -13 -23 9 -44 19 -47 22 -3 3 -9
6 -15 6 -29 2 -215 50 -215 57 0 9 67 28 105 28 30 1 30 1 7 13 -33 19 -18 26
30 15 22 -5 43 -7 45 -4 6 6 -61 24 -121 32 -49 7 -64 24 -20 24 14 0 52 -7
83 -15z m38 -352 c110 -57 131 -71 127 -86 -12 -37 -11 -69 1 -73 6 -3 12 -10
12 -17 1 -32 19 -45 173 -122 136 -68 310 -174 310 -189 0 -2 -26 7 -57 19
-32 13 -71 27 -87 31 -26 6 -28 5 -21 -15 l7 -22 -41 21 c-23 11 -92 42 -155
69 -125 53 -232 119 -286 177 l-35 37 40 -23 c97 -57 126 -72 129 -69 11 12
-55 87 -121 141 -158 128 -193 168 -160 181 24 10 33 7 164 -60z m-192 -190
c32 -54 65 -109 74 -123 14 -21 14 -23 1 -18 -49 18 -60 19 -54 5 2 -7 19 -21
37 -31 23 -12 26 -15 10 -12 -13 2 -23 -1 -23 -6 0 -29 170 -277 244 -356 l30
-32 -59 20 c-33 11 -82 34 -110 51 -38 24 -45 26 -31 10 11 -12 16 -21 11 -21
-14 0 19 -33 107 -105 48 -40 85 -75 82 -78 -3 -2 10 -7 29 -11 18 -3 42 -13
53 -21 18 -14 17 -14 -11 -6 -37 11 -115 23 -115 17 0 -2 20 -16 45 -30 25
-15 45 -30 45 -34 0 -8 -92 -173 -115 -205 -11 -16 -18 -11 -74 53 -76 89
-105 143 -97 182 4 20 -1 40 -17 66 -59 94 -155 420 -171 582 -6 55 -6 55 10
-14 73 -326 134 -488 197 -526 36 -23 57 -25 57 -8 0 6 -27 57 -60 112 -54 92
-120 225 -120 243 0 4 7 -2 16 -13 15 -18 15 -18 10 6 -3 14 -16 62 -30 106
-36 117 -60 314 -37 300 4 -3 34 -49 66 -103z m673 -93 c54 -27 113 -63 132
-80 l35 -31 -70 37 c-64 35 -194 111 -204 120 -15 14 24 -3 107 -46z m-353
-90 c114 -25 216 -62 274 -101 64 -43 74 -57 27 -39 -43 16 -22 -7 47 -51 33
-21 57 -39 54 -39 -32 0 -197 46 -212 60 -11 10 -40 28 -65 40 -58 29 -181
113 -200 135 -13 16 -13 17 5 12 11 -4 43 -11 70 -17z m145 -190 c105 -35 285
-118 276 -127 -1 -2 -49 13 -106 32 -57 19 -111 35 -119 35 -9 0 18 -20 60
-44 90 -53 127 -89 53 -52 -27 13 -78 36 -114 51 -83 35 -169 79 -195 100 -11
9 3 4 32 -10 29 -14 56 -25 60 -25 4 1 -17 24 -47 53 -31 29 -49 47 -40 40 8
-6 71 -30 140 -53z m5 -141 c81 -27 193 -77 172 -79 -5 0 -16 4 -25 9 -10 5
-53 17 -97 26 -85 17 -125 33 -165 66 l-25 20 25 -7 c14 -3 66 -19 115 -35z
m70 -114 c11 -9 -2 -5 -30 10 -27 15 -54 32 -60 37 -15 16 67 -28 90 -47z
m-415 -660 c-24 -25 -46 -45 -49 -45 -3 0 15 20 39 45 24 25 46 45 49 45 3 0
-15 -20 -39 -45z"/>
<path d="M1093 4369 c-1 -10 4 -19 10 -19 7 0 40 -13 75 -30 34 -16 62 -26 62
-22 0 13 -111 72 -122 65 -6 -3 -8 -1 -5 4 4 6 1 13 -6 16 -8 3 -14 -3 -14
-14z"/>
<path d="M1043 4363 c9 -2 23 -2 30 0 6 3 -1 5 -18 5 -16 0 -22 -2 -12 -5z"/>
<path d="M1244 4338 c-4 -7 -4 -10 0 -6 4 3 15 0 24 -7 10 -8 41 -32 70 -55
33 -26 51 -47 48 -56 -3 -7 -1 -16 5 -19 5 -4 7 -11 3 -16 -3 -5 -2 -8 3 -7 4
2 39 -28 76 -65 38 -38 71 -66 74 -64 17 18 -148 205 -248 280 -41 31 -45 32
-55 15z m171 -148 c10 -11 16 -20 13 -20 -3 0 -13 9 -23 20 -10 11 -16 20 -13
20 3 0 13 -9 23 -20z m46 -57 c13 -16 12 -17 -3 -4 -10 7 -18 15 -18 17 0 8 8
3 21 -13z"/>
<path d="M1251 4291 c4 -12 89 -66 89 -57 0 3 -21 19 -46 37 -26 17 -45 26
-43 20z"/>
<path d="M1186 4281 c12 -11 124 -61 124 -56 0 6 -116 65 -127 65 -4 0 -3 -4
3 -9z"/>
<path d="M4180 4418 c-92 -30 -62 -32 45 -4 65 18 80 24 55 25 -19 0 -64 -9
-100 -21z"/>
<path d="M3857 4304 c-15 -8 -44 -26 -64 -39 -32 -23 -34 -25 -12 -25 13 1 44
19 69 40 49 43 50 47 7 24z"/>
<path d="M3935 4270 c-19 -8 -19 -9 3 -9 12 -1 22 4 22 9 0 6 -1 10 -2 9 -2 0
-12 -4 -23 -9z"/>
<path d="M3809 4218 c-8 -7 -21 -22 -29 -33 -11 -15 -8 -14 15 5 17 14 34 28
40 32 5 5 5 8 -1 8 -6 0 -17 -6 -25 -12z"/>
<path d="M3321 4124 c-35 -30 -69 -53 -76 -50 -7 2 -21 -4 -31 -15 -21 -23
-34 -24 -34 -3 0 11 -5 14 -17 9 -40 -16 -106 -17 -170 -1 -50 12 -106 15
-208 14 -152 -3 -162 -1 -227 60 l-28 26 0 -47 c0 -26 -2 -47 -4 -47 -3 0 -35
7 -73 16 -83 19 -224 15 -329 -11 l-71 -18 -54 26 c-30 14 -69 35 -87 48 l-33
22 7 -29 7 -29 -37 29 c-20 15 -39 26 -41 24 -3 -2 29 -40 70 -84 76 -81 87
-84 60 -20 l-16 37 41 -27 c50 -33 98 -35 230 -10 99 19 186 17 263 -6 38 -11
63 -38 49 -53 -4 -5 -1 -5 6 -1 7 4 9 13 5 19 -4 8 -2 8 9 -1 13 -11 17 -9 22
12 3 13 3 39 0 58 -4 27 -3 30 6 15 27 -43 67 -52 215 -50 98 2 163 -2 217
-14 69 -14 82 -14 122 -1 46 15 49 11 19 -24 -8 -9 -15 -23 -17 -30 -1 -8 -29
-45 -61 -82 -33 -37 -62 -72 -64 -79 -2 -6 34 31 80 82 94 105 162 152 129 90
-10 -17 -9 -18 15 -7 14 6 25 15 25 20 0 4 7 8 15 8 8 0 30 24 49 53 19 28 49
69 66 90 45 53 25 45 -49 -19z"/>
<path d="M3919 4169 c-10 -6 -7 -9 14 -9 29 0 35 5 14 13 -8 3 -20 1 -28 -4z"/>
<path d="M3980 4166 c0 -2 7 -7 16 -10 8 -3 12 -2 9 4 -6 10 -25 14 -25 6z"/>
<path d="M3783 3992 c-72 -37 -134 -73 -137 -80 -3 -7 -2 -11 2 -8 5 3 19 -1
33 -7 13 -7 31 -12 40 -12 8 0 58 39 110 87 52 49 92 88 89 87 -3 0 -64 -30
-137 -67z"/>
<path d="M3680 4007 c-8 -7 -22 -21 -30 -32 -8 -11 0 -7 18 9 29 27 37 37 30
36 -2 0 -10 -6 -18 -13z"/>
<path d="M2088 3943 c29 -33 68 -87 87 -119 19 -32 35 -55 35 -51 0 17 -45 95
-77 135 -19 23 -31 42 -26 42 19 0 113 -62 136 -90 43 -51 101 -263 112 -407
2 -34 11 -75 19 -92 9 -16 27 -85 41 -154 29 -146 32 -262 7 -357 -16 -59 -16
-139 0 -115 3 6 14 62 24 125 20 130 14 212 -30 401 -13 57 -29 162 -35 234
-22 241 -55 346 -128 416 -27 24 -59 54 -72 64 l-24 20 5 -22 c4 -14 2 -23 -5
-23 -21 0 -84 25 -103 40 -11 8 5 -13 34 -47z"/>
<path d="M2511 3945 c0 -11 3 -34 8 -51 5 -18 6 -46 2 -64 l-6 -32 -28 38 -27
39 6 -62 c4 -35 4 -63 1 -63 -4 0 -15 16 -25 36 -18 35 -18 35 -15 -143 2 -98
5 -185 6 -193 4 -26 68 142 86 225 l18 80 14 -39 14 -40 5 50 c8 80 -5 164
-28 180 -11 8 -23 24 -25 37 -4 19 -4 20 -6 2z"/>
<path d="M3610 3938 c0 -4 4 -8 9 -8 6 0 12 4 15 8 3 5 -1 9 -9 9 -8 0 -15 -4
-15 -9z"/>
<path d="M2651 3821 c-13 -84 -15 -191 -2 -191 5 0 11 -7 13 -16 2 -9 3 49 3
130 0 80 0 146 -1 146 -1 0 -6 -31 -13 -69z"/>
<path d="M2115 3820 c14 -27 32 -80 41 -117 8 -38 22 -86 30 -108 l15 -40 -47
45 c-34 32 -29 24 18 -28 36 -40 91 -109 122 -154 31 -45 56 -79 56 -76 0 20
-245 528 -255 528 -3 0 6 -22 20 -50z"/>
<path d="M2782 3797 c-44 -106 -72 -214 -71 -277 1 -50 5 -38 49 130 26 102
51 193 55 203 4 9 5 17 2 17 -3 0 -19 -33 -35 -73z"/>
<path d="M2923 3788 c-15 -24 -40 -74 -56 -113 -17 -38 -37 -76 -46 -83 -9 -7
-10 -10 -2 -6 7 4 12 3 10 -2 -2 -5 -17 -42 -33 -82 -16 -40 -31 -70 -33 -68
-2 2 1 16 7 31 18 48 3 39 -20 -12 -27 -62 -96 -287 -115 -378 -10 -48 -14
-140 -14 -299 -1 -225 -1 -229 25 -287 25 -55 27 -57 51 -46 27 12 27 16 -5
107 -23 62 -42 247 -42 400 0 117 19 218 61 334 17 44 33 93 36 108 3 15 9 26
13 23 11 -7 63 97 115 230 25 66 55 135 65 153 28 47 15 39 -17 -10z"/>
<path d="M2697 3697 c-8 -67 -12 -126 -8 -130 5 -5 14 49 21 118 6 69 10 128
8 131 -3 2 -12 -51 -21 -119z"/>
<path d="M3714 3798 l-19 -23 23 19 c12 11 22 21 22 23 0 8 -8 2 -26 -19z"/>
<path d="M3218 3658 c-118 -121 -186 -210 -291 -383 -48 -80 -57 -67 -15 20
l20 40 -44 -49 c-55 -63 -98 -127 -92 -138 3 -4 0 -8 -6 -8 -6 0 -8 -4 -5 -10
3 -5 1 -10 -5 -10 -7 0 -10 -7 -6 -15 3 -8 1 -15 -5 -15 -6 0 -9 -6 -6 -14 3
-7 1 -18 -5 -24 -6 -6 -10 -44 -11 -84 0 -59 5 -86 26 -132 27 -58 66 -120 73
-114 2 2 -6 32 -16 67 -24 74 -25 156 -6 231 8 30 12 58 10 62 -3 5 0 8 6 8 7
0 9 7 6 16 -4 10 -2 13 6 8 8 -5 9 -2 5 9 -3 9 -3 16 2 14 5 -1 30 38 56 88
87 165 172 280 314 428 41 42 71 77 67 77 -4 0 -39 -33 -78 -72z m-347 -495
c-12 -20 -14 -14 -5 12 4 9 9 14 11 11 3 -2 0 -13 -6 -23z"/>
<path d="M2531 3654 c0 -11 3 -14 6 -6 3 7 2 16 -1 19 -3 4 -6 -2 -5 -13z"/>
<path d="M1916 3424 c87 -85 140 -156 189 -254 64 -127 89 -218 81 -293 -6
-59 -26 -105 -26 -61 0 43 -61 143 -121 198 -91 84 -243 149 -342 145 -21 -1
-14 -4 23 -10 235 -34 433 -224 432 -414 -1 -100 -14 -110 -45 -34 -89 221
-143 296 -245 342 -32 15 -85 29 -118 32 l-59 5 60 -14 c142 -33 236 -113 291
-249 l31 -76 -39 33 c-48 41 -154 82 -234 91 -141 15 -484 -117 -607 -234 -97
-92 -251 -272 -224 -262 13 5 50 12 83 16 l59 6 -65 -60 c-60 -56 -180 -144
-215 -158 -20 -7 -19 -22 2 -45 9 -10 11 -18 6 -18 -6 0 -34 -15 -62 -34 l-51
-34 15 35 c18 42 18 46 4 38 -29 -19 62 145 102 181 11 10 25 26 30 35 7 15 4
16 -29 8 -20 -4 -59 -15 -87 -23 -27 -9 -52 -16 -55 -16 -12 0 125 130 217
207 57 47 103 89 103 94 0 13 -85 -16 -122 -41 -18 -13 -62 -50 -97 -84 l-64
-61 46 61 c77 102 205 206 320 260 69 32 37 31 -55 -2 -129 -47 -231 -99 -288
-148 -30 -26 -82 -66 -115 -88 -33 -23 -51 -38 -40 -34 54 21 129 46 136 46 5
0 -3 -23 -17 -50 -14 -28 -23 -59 -19 -68 4 -13 -14 -41 -58 -93 l-64 -75 91
26 c50 15 92 26 94 25 1 -1 -11 -29 -27 -62 -24 -48 -101 -282 -101 -306 0 -3
20 15 44 41 46 50 146 127 131 101 -5 -8 -23 -32 -41 -54 -17 -22 -42 -60 -54
-85 l-22 -45 42 45 c24 26 39 37 35 25 -18 -53 -45 -195 -45 -235 l0 -44 38
35 c20 19 49 44 63 57 l25 22 -4 -58 c-5 -74 19 -216 49 -278 20 -44 23 -46
27 -24 4 28 49 159 60 176 4 6 21 19 37 28 l30 16 -27 -6 c-20 -4 -28 -2 -28
7 0 13 -21 -14 -66 -89 l-22 -34 -11 51 c-13 63 -14 134 -1 221 5 35 7 66 5
68 -6 7 -103 -67 -125 -95 -11 -14 -20 -22 -20 -16 0 16 130 172 173 208 23
19 80 62 126 97 46 35 87 70 91 78 5 8 13 49 19 90 14 89 60 229 107 321 53
107 191 219 268 219 52 0 57 -4 91 -68 57 -106 142 -160 277 -177 105 -13 174
-67 198 -154 5 -20 10 -80 10 -133 0 -107 -11 -142 -100 -331 -23 -49 -50
-112 -60 -140 -10 -29 -19 -43 -19 -31 -1 25 -72 169 -100 204 -27 33 -26 24
5 -46 32 -73 76 -237 72 -269 -3 -24 -4 -24 -78 22 -99 60 -380 207 -386 201
-2 -3 23 -20 57 -37 33 -18 59 -35 57 -37 -2 -2 -28 5 -57 16 -29 11 -57 17
-63 14 -6 -4 -8 -2 -4 4 7 11 -19 17 -204 51 -96 18 -269 37 -245 27 6 -2 80
-17 165 -33 132 -24 149 -29 115 -34 -35 -5 -32 -6 23 -8 160 -3 509 -139 605
-236 32 -31 11 -27 -69 13 -163 82 -410 150 -573 157 l-86 4 74 -11 c52 -7 70
-13 60 -20 -10 -7 -8 -8 8 -3 24 7 201 -32 326 -71 112 -36 262 -107 271 -129
5 -14 4 -15 -7 -7 -48 40 -367 165 -383 150 -2 -3 56 -26 128 -52 133 -47 258
-109 258 -126 0 -5 -42 11 -92 36 -104 49 -181 68 -344 84 -110 10 -249 3
-344 -19 -22 -5 -40 -7 -40 -5 0 9 -97 -45 -110 -61 -12 -14 -10 -15 14 -5 15
5 29 10 32 10 2 0 4 -21 4 -47 1 -104 34 -210 98 -305 34 -52 38 -42 7 15
l-26 46 43 31 c66 49 151 89 220 104 73 16 217 29 178 16 l-25 -8 23 -7 c19
-6 10 -13 -59 -40 -44 -18 -86 -38 -92 -44 -6 -6 26 5 72 24 82 35 110 43 81
25 -8 -5 -15 -15 -16 -22 0 -7 -2 -21 -2 -30 -1 -11 -29 -30 -74 -52 -40 -19
-84 -44 -98 -56 -22 -19 -19 -18 20 3 92 52 208 78 211 49 6 -58 11 -88 18
-97 5 -5 11 -22 13 -38 4 -23 0 -31 -29 -49 -28 -16 -32 -23 -20 -29 8 -5 20
-28 27 -52 11 -43 107 -173 118 -162 3 3 -2 13 -10 22 -26 29 -89 154 -82 164
3 5 0 9 -5 9 -6 0 -11 10 -11 23 0 25 82 83 101 71 8 -4 9 -3 5 4 -4 7 -3 12
3 12 5 0 8 -14 5 -33 -5 -31 18 -107 34 -107 4 0 18 -18 31 -40 13 -21 35 -41
48 -45 12 -3 23 -12 23 -20 0 -8 9 -19 20 -25 15 -8 20 -8 20 1 0 7 12 -6 28
-28 15 -22 39 -55 53 -73 l27 -33 -20 59 c-21 61 -37 237 -19 199 8 -16 10
-13 9 17 -2 29 5 45 27 68 35 36 44 38 38 6 -3 -16 3 -37 17 -56 l22 -31 -27
-42 c-23 -36 -19 -33 29 20 35 38 62 60 71 57 11 -5 11 -11 3 -30 -6 -13 -15
-24 -20 -24 -5 0 -6 -4 -3 -10 3 -5 -1 -33 -10 -62 -22 -75 -17 -83 9 -12 12
33 33 75 45 93 19 26 26 30 38 20 11 -10 13 -30 7 -103 -3 -50 -10 -96 -15
-102 -6 -7 -4 -16 5 -23 15 -13 11 -45 -5 -35 -5 3 -6 -2 -3 -10 3 -9 10 -13
15 -10 5 3 9 -2 9 -12 0 -13 6 -15 29 -11 26 5 28 4 24 -21 -3 -19 -2 -23 5
-13 7 10 12 2 18 -30 4 -24 8 -47 8 -51 1 -3 5 -10 10 -15 5 -4 6 12 2 40 -13
90 -9 213 9 251 15 31 19 34 36 23 11 -7 15 -13 9 -15 -6 -2 -15 -13 -21 -24
-10 -18 -9 -18 10 -8 21 10 21 9 21 -80 0 -57 -4 -90 -11 -90 -5 0 -7 -4 -4
-10 3 -5 3 -16 -2 -22 -11 -18 -11 -29 4 -64 7 -17 10 -34 7 -37 -3 -3 -1 -15
5 -26 6 -11 13 -36 14 -55 2 -19 16 -50 33 -71 16 -21 28 -41 26 -46 -1 -5 3
-8 10 -7 7 2 12 -11 13 -31 2 -31 1 -33 -11 -16 -11 14 -14 15 -14 4 0 -8 9
-22 20 -32 20 -16 20 -16 20 36 0 81 -18 161 -61 275 -35 93 -39 111 -39 197
0 52 3 95 7 95 4 0 20 -12 36 -27 27 -26 29 -26 18 -5 -12 22 -11 23 7 13 11
-6 27 -27 37 -48 l18 -37 36 40 c20 23 45 47 55 55 18 13 19 12 14 -9 -6 -21
-4 -20 29 9 28 24 38 28 44 17 5 -7 9 -8 9 -2 0 6 18 22 40 37 39 25 40 26 36
4 -3 -12 -8 -47 -11 -77 -11 -93 -48 -147 -81 -119 -11 9 -15 8 -20 -4 -3 -9
-3 -20 0 -26 3 -5 3 -11 -1 -13 -5 -1 -16 -34 -26 -73 -10 -38 -34 -108 -52
-154 -19 -46 -32 -82 -30 -79 3 2 39 55 80 118 90 136 130 235 146 361 7 52
14 96 16 99 2 2 9 -2 14 -10 8 -12 9 -10 7 7 -3 23 37 73 58 73 7 0 18 -8 24
-17 10 -16 11 -16 5 2 -8 25 2 15 31 -32 13 -21 24 -32 24 -24 0 11 3 11 18 0
9 -7 5 0 -10 15 -38 37 -61 83 -47 92 15 9 42 -25 75 -95 33 -68 29 -119 -15
-193 l-32 -53 37 40 c44 49 74 114 74 163 0 39 -26 105 -60 152 -20 28 -20 29
-2 39 15 8 26 3 59 -27 22 -20 43 -38 47 -38 4 -1 21 -11 37 -23 l28 -21 -26
-73 c-14 -39 -36 -96 -49 -126 -35 -79 -21 -75 20 6 52 104 84 251 58 267 -4
2 -6 -12 -4 -32 l5 -36 -72 64 c-63 56 -70 65 -57 78 13 14 20 12 57 -14 23
-16 53 -36 66 -44 13 -8 37 -35 54 -59 31 -47 38 -48 15 -2 -17 32 -88 99
-134 126 -30 18 -42 35 -24 35 28 0 161 -111 194 -161 37 -57 48 -58 20 -2
-22 42 -79 98 -154 152 -29 21 -44 39 -41 47 6 17 22 13 112 -27 35 -16 58
-23 52 -15 -6 7 -29 21 -51 31 -22 10 -40 22 -40 27 0 4 2 8 5 8 14 0 139 -52
195 -81 83 -43 84 -44 76 -30 -9 14 -150 86 -231 117 -48 18 -54 23 -32 24 56
0 264 -101 268 -131 1 -5 2 -13 3 -18 0 -4 16 -21 35 -37 l35 -29 -19 30 c-41
66 -107 123 -184 157 -42 20 -87 40 -101 47 -21 9 -12 11 55 8 44 -2 71 -2 60
0 -11 3 -24 9 -30 15 -14 14 45 1 115 -25 40 -15 73 -38 122 -87 43 -43 61
-57 50 -38 -9 16 -39 50 -65 75 -57 53 -40 51 73 -9 112 -59 109 -52 62 -150
-22 -45 -57 -105 -77 -133 l-37 -50 50 52 c49 51 93 126 111 190 9 30 7 33
-50 73 -127 89 -288 143 -426 144 -51 1 -93 4 -93 8 0 4 34 24 75 44 73 35 79
37 153 31 125 -10 324 -84 435 -164 27 -19 51 -32 53 -30 9 8 -120 99 -190
134 -70 35 -232 82 -290 84 l-31 1 30 9 c17 4 66 13 110 18 l80 10 -90 -5
c-109 -6 -204 -25 -268 -54 -50 -22 -90 -23 -48 -1 84 45 324 86 463 79 115
-6 158 -26 243 -112 76 -76 110 -142 109 -213 l0 -53 28 48 c55 92 111 330 94
397 l-6 24 42 -15 c24 -8 54 -22 68 -31 24 -16 24 -16 11 1 -23 27 -87 56
-160 72 -105 23 -313 34 -431 23 -92 -8 -314 -60 -389 -90 -13 -5 -25 -8 -27
-6 -5 5 72 48 83 46 21 -4 34 2 27 13 -5 7 -3 8 5 3 16 -9 92 25 84 38 -3 6
-1 7 6 3 16 -10 53 3 45 16 -5 7 -1 9 9 5 10 -3 17 -2 17 3 0 5 7 7 15 4 8 -4
15 -1 15 7 0 7 3 10 6 6 3 -3 30 3 60 13 72 25 158 41 269 50 l90 7 -86 1
c-86 2 -224 -17 -309 -42 -79 -23 -222 -86 -305 -133 -44 -25 -83 -48 -87 -50
-5 -2 -8 5 -8 16 0 14 18 32 55 55 162 104 357 166 634 202 l106 13 -110 -4
c-121 -6 -258 -31 -380 -71 -94 -31 -135 -51 -233 -111 -40 -25 -75 -44 -77
-41 -2 2 4 17 14 33 11 19 45 43 92 67 41 20 83 44 94 53 11 9 -5 4 -35 -11
-48 -23 -53 -24 -37 -6 39 44 316 174 497 233 107 35 82 38 -35 4 -208 -61
-421 -170 -529 -272 l-60 -58 -7 42 c-17 97 -69 235 -69 182 0 -7 -8 -9 -21
-6 -22 6 -25 13 27 -67 28 -44 45 -128 51 -251 l5 -120 -51 -29 c-28 -17 -49
-31 -47 -33 2 -2 24 9 51 23 l47 27 -7 -24 c-11 -35 -24 -48 -74 -74 -25 -13
-41 -24 -36 -24 6 -1 30 10 54 24 23 14 45 25 46 25 2 0 -2 -17 -9 -37 -11
-33 -22 -43 -80 -71 -38 -18 -67 -35 -64 -37 2 -2 28 7 57 21 29 14 55 24 57
21 6 -6 -65 -91 -98 -116 -45 -36 -105 -51 -197 -51 -81 1 -193 18 -219 34 -7
4 -12 20 -12 35 0 24 5 29 49 40 98 25 168 88 227 203 30 59 32 139 6 183
l-18 29 53 88 c29 48 59 102 68 120 l16 33 -21 -25 c-37 -44 -77 -104 -100
-150 -12 -25 -24 -46 -25 -48 -1 -2 -19 7 -40 19 -70 42 -365 45 -445 6 -44
-23 -46 -22 -59 14 -15 43 -102 202 -107 196 -6 -6 30 -97 72 -181 l35 -68
-22 -45 c-26 -55 -22 -113 14 -195 48 -109 153 -188 248 -188 28 0 30 -2 27
-32 -3 -31 -7 -34 -68 -51 -41 -12 -102 -19 -165 -20 -90 -2 -105 1 -151 25
-27 14 -57 34 -64 43 -13 15 -11 20 9 37 29 22 24 28 -49 66 -38 20 -58 37
-67 60 l-13 32 57 -26 c32 -13 65 -32 75 -41 10 -9 18 -12 18 -7 0 13 -36 35
-95 59 -35 15 -53 29 -59 48 -13 36 -4 42 36 21 27 -14 31 -14 20 -2 -7 9 -26
21 -42 28 -30 12 -30 13 -30 90 0 161 35 254 136 356 63 64 63 65 110 212 47
149 81 224 154 342 43 68 57 109 71 205 8 58 10 185 2 135 -15 -92 -93 -255
-153 -322 -44 -49 -39 -55 -70 85 -31 139 -34 193 -15 257 8 30 21 85 27 122
15 88 -4 167 -74 308 -29 58 -54 110 -56 115 -8 22 48 -52 82 -109 20 -33 36
-57 36 -52 0 44 -197 275 -300 353 -19 15 -8 0 26 -33z m145 -141 c13 -16 12
-17 -3 -4 -10 7 -18 15 -18 17 0 8 8 3 21 -13z m-135 -524 c9 -16 -12 -33 -31
-25 -14 5 -15 9 -5 21 15 18 26 19 36 4z m-136 -35 c0 -24 35 -66 104 -122 21
-17 20 -42 -1 -42 -92 0 -183 80 -183 160 0 28 2 30 40 30 37 0 40 -2 40 -26z
m-765 -558 c-8 -13 -13 -31 -9 -40 4 -11 1 -16 -10 -16 -9 0 -47 -14 -84 -30
l-67 -30 42 36 c24 19 59 51 78 70 43 41 75 48 50 10z m-5 -95 c0 -5 -24 -31
-52 -59 -143 -136 -178 -168 -178 -165 0 2 9 20 19 41 22 43 73 97 143 153 50
39 68 47 68 30z m2885 -502 c114 -31 173 -181 127 -324 -11 -34 -22 -54 -25
-45 -2 8 -13 38 -22 65 -13 36 -36 68 -84 116 -89 88 -123 99 -300 99 -153 0
-262 -16 -367 -54 -39 -14 -74 -26 -78 -26 -16 0 -4 50 14 60 11 6 17 16 14
22 -4 6 -3 8 3 5 6 -4 30 0 53 8 62 22 78 20 55 -5 -24 -27 -16 -25 57 9 59
28 185 64 253 74 65 9 262 6 300 -4z m72 5 c-3 -3 -12 -4 -19 -1 -8 3 -5 6 6
6 11 1 17 -2 13 -5z m-2464 -21 l68 -6 -38 -17 c-21 -9 -44 -24 -52 -33 -10
-12 -30 -17 -70 -17 -63 0 -118 -13 -146 -34 -18 -13 -15 -13 20 -1 22 8 68
14 101 15 53 0 62 -3 67 -19 9 -34 -18 -57 -81 -70 -64 -12 -177 -64 -232
-105 l-35 -27 -13 43 c-19 64 -28 233 -13 243 44 27 275 43 424 28z m1224 -16
c38 -20 63 -58 70 -105 l5 -37 -19 35 c-27 52 -74 70 -201 79 -59 5 -84 9 -57
10 66 2 95 10 95 27 0 18 65 12 107 -9z m-973 -33 c92 -37 143 -70 148 -97 l5
-24 -75 23 c-62 19 -84 33 -132 79 -65 61 -59 64 54 19z m-241 -111 c-7 -2
-19 -2 -25 0 -7 3 -2 5 12 5 14 0 19 -2 13 -5z m375 -32 c12 -6 22 -14 22 -16
0 -6 -124 36 -134 46 -12 11 84 -15 112 -30z m1 -52 c18 -11 32 -22 30 -24 -2
-2 -29 0 -59 5 -31 4 -42 8 -25 9 31 1 25 15 -10 24 -16 4 -16 5 5 6 14 0 40
-8 59 -20z m825 -9 c9 0 26 5 38 11 25 14 35 4 17 -17 -19 -23 -50 -33 -83
-27 -30 6 -42 24 -32 49 6 16 8 16 24 0 10 -9 26 -16 36 -16z m-328 -15 c-8
-22 -69 -19 -97 4 l-24 20 41 -6 c23 -3 50 -1 60 5 21 12 30 1 20 -23z m869
-14 c26 -6 31 -9 15 -9 -14 -1 -43 3 -65 7 -26 6 -31 9 -15 9 14 1 43 -3 65
-7z m-1429 -30 c-18 -7 -66 -3 -66 5 0 2 19 4 43 3 30 0 36 -3 23 -8z m-219
-17 c-3 -3 -12 -4 -19 -1 -8 3 -5 6 6 6 11 1 17 -2 13 -5z m439 -56 c43 -20
45 -23 28 -35 -29 -22 -43 -14 -75 40 -13 22 -8 22 47 -5z m1114 12 c0 -5 -4
-10 -10 -10 -5 0 -10 5 -10 10 0 6 5 10 10 10 6 0 10 -4 10 -10z m-1160 -123
c0 -2 -10 -12 -22 -23 l-23 -19 19 23 c18 21 26 27 26 19z m-57 -75 c-2 -10
-11 -19 -19 -19 -11 0 -11 4 3 19 9 10 17 18 19 18 1 0 0 -8 -3 -18z m167 -6
c0 -2 -8 -10 -17 -17 -16 -13 -17 -12 -4 4 13 16 21 21 21 13z m345 -16 c-3
-5 4 -11 17 -12 13 0 37 -2 53 -4 17 -1 37 0 45 2 13 5 13 6 0 15 -11 8 -9 9
9 4 13 -4 69 -7 124 -8 l101 0 -40 -33 c-68 -59 -98 -68 -226 -72 -112 -4
-120 -3 -160 22 -24 14 -58 39 -76 55 l-33 28 77 1 c42 1 79 4 82 7 10 9 33 5
27 -5z m-195 -70 c0 -5 -2 -10 -4 -10 -3 0 -8 5 -11 10 -3 6 -1 10 4 10 6 0
11 -4 11 -10z m48 -27 c18 -16 19 -21 7 -53 -10 -28 -14 -32 -20 -17 -4 9 -13
17 -21 17 -15 0 -17 12 -8 48 8 27 15 28 42 5z m-54 -138 c-4 -8 -8 -15 -10
-15 -2 0 -4 7 -4 15 0 8 4 15 10 15 5 0 7 -7 4 -15z"/>
<path d="M2534 3340 c0 -74 1 -105 3 -67 2 37 2 97 0 135 -2 37 -3 6 -3 -68z"/>
<path d="M2195 3375 c113 -209 139 -282 133 -373 -2 -31 -8 -64 -12 -73 -5
-13 -1 -18 19 -21 35 -7 38 4 33 110 -3 75 -9 99 -40 164 -32 67 -144 247
-171 273 -5 6 12 -30 38 -80z"/>
<path d="M2330 3439 c0 -5 5 -7 10 -4 6 3 10 8 10 11 0 2 -4 4 -10 4 -5 0 -10
-5 -10 -11z"/>
<path d="M3158 3353 c-163 -167 -224 -290 -221 -450 1 -56 6 -89 17 -104 18
-26 19 -24 35 65 25 136 86 210 214 257 31 12 55 24 53 26 -8 9 -101 -26 -141
-53 -37 -24 -35 -21 20 35 33 35 79 74 103 88 59 35 53 40 -9 6 -100 -56 -213
-185 -249 -286 l-19 -52 0 50 c-1 28 6 77 14 109 15 58 84 201 92 192 3 -2 -2
-15 -10 -28 -8 -12 -18 -34 -22 -48 -3 -14 9 2 27 35 47 85 73 121 142 193 32
34 57 62 54 62 -2 0 -47 -44 -100 -97z"/>
<path d="M3638 3373 c7 -3 16 -2 19 1 4 3 -2 6 -13 5 -11 0 -14 -3 -6 -6z"/>
<path d="M3862 3220 c59 -32 125 -71 148 -85 60 -38 40 -14 -22 28 -55 36
-210 117 -225 117 -4 0 40 -27 99 -60z"/>
<path d="M1865 3207 c33 -17 88 -60 122 -93 35 -34 63 -58 63 -54 0 19 -114
119 -168 148 -33 18 -64 32 -68 32 -5 0 18 -15 51 -33z"/>
<path d="M3790 3058 c47 -24 108 -58 135 -76 l50 -32 -40 35 c-22 20 -71 51
-110 70 -104 50 -133 53 -35 3z"/>
<path d="M3310 3044 c-129 -21 -214 -55 -251 -102 -34 -43 -20 -46 24 -5 63
58 140 84 272 93 61 4 94 8 74 8 -20 1 -49 4 -65 6 -16 2 -40 2 -54 0z"/>
<path d="M2702 2965 c0 -16 2 -22 5 -12 2 9 2 23 0 30 -3 6 -5 -1 -5 -18z"/>
<path d="M1542 2961 c-18 -5 -36 -12 -40 -16 -4 -3 7 -3 23 1 17 4 68 8 115 8
100 -1 175 -24 260 -81 108 -72 118 -77 70 -33 -24 23 -83 60 -130 83 -78 38
-92 41 -175 44 -49 1 -105 -2 -123 -6z"/>
<path d="M3260 2910 c-30 -4 -68 -13 -84 -19 -16 -6 -31 -10 -33 -7 -6 6 -39
-20 -87 -69 -23 -23 -57 -77 -82 -130 -41 -89 -104 -293 -104 -339 0 -13 17
-64 38 -113 l37 -88 6 95 c6 107 32 179 89 244 40 45 60 53 166 71 45 7 96 20
113 30 51 26 104 85 141 158 l35 68 100 -4 100 -5 63 -73 c61 -71 144 -187
172 -239 8 -14 32 -71 55 -127 35 -87 48 -107 86 -137 24 -20 46 -31 48 -25 2
6 0 14 -5 18 -5 3 -10 14 -12 24 -3 17 -1 17 29 2 17 -9 54 -33 83 -53 167
-116 190 -145 250 -297 19 -49 35 -81 35 -70 1 39 -29 145 -58 207 -51 112
-76 138 -193 195 -58 28 -109 56 -112 62 -9 14 -8 14 55 -8 139 -50 294 -129
354 -183 l35 -30 -15 43 c-39 110 -176 328 -247 395 l-31 29 35 -50 c19 -27
47 -72 63 -100 l28 -50 -69 64 c-38 35 -77 73 -87 84 -10 11 -20 17 -23 15 -3
-3 45 -58 106 -122 113 -119 174 -195 165 -204 -3 -3 -13 2 -22 10 -27 23
-236 140 -348 194 -69 33 -93 49 -79 52 23 3 148 -40 173 -61 38 -31 -187 280
-258 356 -25 27 -75 69 -111 93 -53 36 -66 41 -73 29 -13 -24 -77 -18 -164 14
-126 47 -260 66 -363 51z m72 -72 c46 -14 61 -41 48 -87 -20 -71 -97 -131
-166 -131 -41 0 -93 35 -109 73 -13 30 -12 33 13 49 25 16 26 16 41 -5 22 -32
43 -46 68 -47 46 0 76 96 32 107 -13 4 -18 11 -14 21 4 12 3 12 -9 3 -10 -8
-16 -9 -21 -1 -7 11 28 28 59 29 10 1 37 -4 58 -11z m-268 -217 c-6 -7 -11 2
-17 34 l-6 30 13 -30 c8 -16 12 -32 10 -34z"/>
<path d="M2670 2864 c0 -47 83 -264 97 -250 2 2 -3 18 -11 35 -9 17 -32 77
-51 133 -19 57 -35 94 -35 82z"/>
<path d="M4060 2790 c8 -6 56 -36 106 -66 50 -31 108 -71 130 -89 l39 -33 -80
38 c-116 56 -143 59 -49 5 102 -59 229 -160 318 -255 l69 -74 -29 54 c-16 29
-73 104 -126 166 l-97 112 86 -34 c48 -18 88 -32 90 -30 5 5 -85 61 -137 85
-25 11 -99 43 -165 70 -127 51 -182 70 -155 51z"/>
<path d="M1420 2569 c0 -34 43 -137 75 -181 19 -26 54 -58 79 -73 53 -31 157
-54 246 -55 56 -1 62 -3 40 -12 -44 -19 -257 -15 -318 6 -102 35 -142 89 -151
201 l-6 71 -72 -179 c-40 -101 -65 -176 -58 -173 21 8 77 -11 110 -38 l29 -24
-49 -32 c-28 -17 -40 -29 -28 -26 12 4 63 17 115 30 192 48 286 80 403 135
l120 56 -111 5 c-102 5 -116 8 -185 42 -90 45 -168 120 -209 202 -17 33 -30
53 -30 45z"/>
<path d="M3190 2329 c131 -52 173 -72 245 -119 l70 -45 -74 -5 -75 -5 36 -27
c20 -16 41 -28 47 -28 6 0 68 16 138 35 195 54 251 48 368 -39 l50 -37 -49 45
c-85 77 -148 101 -346 132 -96 14 -187 26 -201 26 -22 -1 -26 3 -25 26 1 26
-3 28 -89 49 -49 13 -108 23 -130 22 -39 0 -38 -1 35 -30z"/>
<path d="M4020 2143 c0 -8 45 -19 155 -39 28 -5 29 -4 12 9 -10 8 -39 18 -65
21 -26 4 -59 9 -74 12 -16 3 -28 2 -28 -3z"/>
<path d="M2975 2060 c-3 -5 -1 -10 4 -10 6 0 11 5 11 10 0 6 -2 10 -4 10 -3 0
-8 -4 -11 -10z"/>
<path d="M2885 1970 c3 -5 8 -10 11 -10 2 0 4 5 4 10 0 6 -5 10 -11 10 -5 0
-7 -4 -4 -10z"/>
<path d="M2988 1966 c4 -6 7 -14 7 -18 0 -13 15 -21 15 -8 0 7 3 10 6 7 4 -4
1 -14 -7 -24 -11 -14 -11 -15 0 -9 10 7 12 4 7 -12 -7 -22 15 -37 32 -20 17
17 -16 85 -44 91 -15 3 -21 0 -16 -7z"/>
<path d="M4088 1973 c12 -2 30 -2 40 0 9 3 -1 5 -23 4 -22 0 -30 -2 -17 -4z"/>
<path d="M4360 1962 c0 -12 78 -202 87 -212 13 -13 -12 91 -32 135 -26 56 -54
97 -55 77z"/>
<path d="M2955 1892 c33 -34 61 -62 64 -62 9 0 -59 72 -99 105 -14 10 2 -9 35
-43z"/>
<path d="M4050 1936 c0 -3 46 -28 103 -55 95 -46 195 -116 183 -129 -3 -3 -14
2 -24 11 -16 15 -73 42 -208 101 -36 15 -78 25 -100 25 -26 -1 -31 -3 -14 -6
83 -14 129 -35 165 -74 61 -68 87 -137 93 -246 6 -116 26 -112 25 4 -1 68 -13
125 -38 186 -5 12 -2 17 9 17 24 0 95 -38 122 -65 l24 -24 0 49 c0 27 -4 52
-10 55 -5 3 -10 -2 -10 -12 0 -13 -5 -10 -19 12 -30 48 -71 82 -141 114 -61
29 -160 52 -160 37z"/>
<path d="M1010 1891 c0 -13 92 -21 172 -13 58 5 67 7 43 13 -45 10 -215 10
-215 0z"/>
<path d="M1208 1783 c7 -3 16 -2 19 1 4 3 -2 6 -13 5 -11 0 -14 -3 -6 -6z"/>
<path d="M2042 1304 c10 -10 20 -15 24 -12 3 4 -5 12 -18 18 -22 12 -22 12 -6
-6z"/>
<path d="M2130 1126 c0 -2 7 -7 16 -10 8 -3 12 -2 9 4 -6 10 -25 14 -25 6z"/>
<path d="M1342 1088 c-21 -21 -13 -54 28 -116 77 -115 98 -111 40 9 -22 45
-40 89 -40 95 0 19 -15 25 -28 12z"/>
<path d="M3447 918 c-4 -32 -18 -88 -32 -125 -13 -37 -23 -69 -21 -70 2 -2 17
28 35 66 27 58 32 80 29 128 l-3 58 -8 -57z"/>
<path d="M2098 909 c-10 -5 -22 -18 -28 -29 -8 -16 -6 -18 16 -15 32 3 44 15
35 37 -4 13 -10 14 -23 7z"/>
<path d="M3277 799 c-40 -74 -135 -203 -226 -309 -44 -50 -49 -60 -24 -42 75
53 197 211 263 340 44 87 34 96 -13 11z"/>
<path d="M2037 801 c-3 -12 -2 -21 3 -21 4 0 13 -28 20 -62 17 -79 12 -64 61
-178 l29 -65 -33 36 c-17 20 -49 65 -69 100 -21 35 -38 60 -38 56 0 -15 43
-93 73 -132 70 -90 310 -332 282 -285 -4 8 -42 66 -84 128 -134 200 -154 235
-197 340 -30 76 -43 98 -47 83z"/>
<path d="M2690 745 c0 -8 2 -15 4 -15 2 0 6 7 10 15 3 8 1 15 -4 15 -6 0 -10
-7 -10 -15z"/>
<path d="M2917 662 c-26 -45 -104 -157 -173 -250 l-125 -167 83 86 c46 48 121
124 168 169 47 46 73 72 57 60 -15 -13 -34 -25 -43 -26 -13 -2 -13 1 2 24 35
55 41 62 49 54 5 -4 5 -2 1 5 -4 7 3 31 14 53 41 81 15 74 -33 -8z"/>
<path d="M1636 661 c-3 -4 3 -16 13 -25 17 -16 18 -15 14 9 -5 25 -17 32 -27
16z"/>
<path d="M1965 596 c3 -16 20 -59 37 -95 17 -36 30 -71 30 -77 -2 -13 56 -69
64 -61 3 3 -8 27 -26 52 -18 26 -50 83 -71 128 -22 45 -37 69 -34 53z"/>
</g>
</svg>